<svg width="35" height="28" viewBox="0 0 35 28" fill="none" xmlns="http://www.w3.org/2000/svg">
<g clip-path="url(#clip0_104_35)">
<path d="M21.455 16.92C21.455 17.6433 21.3033 18.2033 21 18.6C20.72 18.9967 20.4167 19.2883 20.09 19.475C19.6933 19.7083 19.25 19.86 18.76 19.93C18.9233 21.3067 18.8767 22.5317 18.62 23.605C18.5033 24.0717 18.3283 24.5267 18.095 24.97C17.885 25.39 17.5933 25.775 17.22 26.125C16.8467 26.4517 16.38 26.72 15.82 26.93C15.2833 27.14 14.63 27.245 13.86 27.245C13.16 27.245 12.5533 27.14 12.04 26.93C11.5267 26.72 11.095 26.4517 10.745 26.125C10.395 25.775 10.115 25.39 9.905 24.97C9.695 24.5267 9.54333 24.0717 9.45 23.605C9.19333 22.5317 9.135 21.3067 9.275 19.93C8.34167 19.93 7.525 19.895 6.825 19.825C6.125 19.755 5.53 19.6733 5.04 19.58C4.45667 19.4867 3.96667 19.3583 3.57 19.195C2.87 19.0083 2.33333 18.705 1.96 18.285C1.61 17.865 1.365 17.375 1.225 16.815C1.10833 16.255 1.07333 15.66 1.12 15.03C1.19 14.3767 1.31833 13.7233 1.505 13.07C1.925 11.5533 2.61333 9.89667 3.57 8.1C4.10667 7.16667 4.66667 6.37333 5.25 5.72C5.83333 5.04333 6.41667 4.495 7 4.075C7.60667 3.63167 8.19 3.29333 8.75 3.06C9.33333 2.80333 9.89333 2.61666 10.43 2.5C11.6667 2.24333 12.88 2.255 14.07 2.535C14.7467 2.72166 15.33 3.03667 15.82 3.48C16.3333 3.9 16.765 4.39 17.115 4.95C17.465 5.51 17.745 6.12833 17.955 6.805C18.1883 7.45833 18.3633 8.11167 18.48 8.765C18.76 10.305 18.8533 11.9967 18.76 13.84C19.4367 13.8633 19.95 14.0383 20.3 14.365C20.65 14.6683 20.9183 15.0183 21.105 15.415C21.315 15.8583 21.4317 16.36 21.455 16.92ZM8.75 11.88C8.35333 11.88 8.00333 12.0317 7.7 12.335C7.42 12.6383 7.30333 12.9767 7.35 13.35C7.39667 13.84 7.53667 14.1783 7.77 14.365C8.02667 14.5517 8.35333 14.645 8.75 14.645C9.14667 14.645 9.47333 14.5283 9.73 14.295C9.98667 14.0617 10.115 13.7467 10.115 13.35C10.115 12.9767 9.99833 12.6383 9.765 12.335C9.53167 12.0317 9.19333 11.88 8.75 11.88ZM33.2645 22.94C33.2645 23.5467 33.1712 24.1183 32.9845 24.655C32.7978 25.1917 32.5178 25.6583 32.1445 26.055C31.7712 26.4517 31.3045 26.7667 30.7445 27C30.2078 27.2333 29.5778 27.35 28.8545 27.35C28.1545 27.35 27.5245 27.2333 26.9645 27C26.4278 26.7667 25.9728 26.4517 25.5995 26.055C25.2262 25.6583 24.9345 25.1917 24.7245 24.655C24.5378 24.1183 24.4445 23.5467 24.4445 22.94C24.4445 22.3333 24.5378 21.7617 24.7245 21.225C24.9345 20.6883 25.2262 20.2217 25.5995 19.825C25.9728 19.4283 26.4278 19.1133 26.9645 18.88C27.5245 18.6467 28.1545 18.53 28.8545 18.53C29.5778 18.53 30.2078 18.6467 30.7445 18.88C31.3045 19.1133 31.7712 19.4283 32.1445 19.825C32.5178 20.2217 32.7978 20.6883 32.9845 21.225C33.1712 21.7617 33.2645 22.3333 33.2645 22.94Z" fill="#5B3A01"/>
</g>
<defs>
<clipPath id="clip0_104_35">
<rect width="35" height="28" fill="white"/>
</clipPath>
</defs>
</svg>
