<svg width="35" height="28" viewBox="0 0 35 28" fill="none" xmlns="http://www.w3.org/2000/svg">
<g clip-path="url(#clip0_104_19)">
<path d="M7.21 11.11C6.41667 11.67 5.635 12.0783 4.865 12.335C4.21167 12.545 3.54667 12.6033 2.87 12.51C2.19333 12.3933 1.65667 11.9267 1.26 11.11C0.98 10.55 0.816667 10.025 0.77 9.535C0.723333 9.02167 0.758333 8.54333 0.875 8.1C1.015 7.65667 1.20167 7.24833 1.435 6.875C1.69167 6.47833 1.97167 6.11667 2.275 5.79C2.975 5.02 3.87333 4.34333 4.97 3.76C6.16 3.17667 7.23333 2.85 8.19 2.78C9.17 2.71 9.99833 2.745 10.675 2.885C11.4683 3.04833 12.18 3.34 12.81 3.76C13.37 4.15667 13.8483 4.705 14.245 5.405C14.6417 6.105 14.9567 6.89833 15.19 7.785C15.4467 8.64833 15.645 9.58167 15.785 10.585C15.925 11.565 16.0183 12.545 16.065 13.525C16.1817 15.8117 16.1233 18.2733 15.89 20.91C15.82 21.7267 15.7033 22.4383 15.54 23.045C15.3767 23.6283 15.1667 24.1417 14.91 24.585C14.6767 25.0283 14.4083 25.4017 14.105 25.705C13.825 25.985 13.5333 26.2067 13.23 26.37C12.53 26.79 11.76 27 10.92 27C10.01 27 9.26333 26.79 8.68 26.37C8.12 25.9267 7.67667 25.4367 7.35 24.9C6.97667 24.2933 6.70833 23.5933 6.545 22.8C6.265 21.4 6.13667 20.0117 6.16 18.635C6.18333 17.235 6.27667 15.975 6.44 14.855C6.62667 13.5483 6.88333 12.3 7.21 11.11ZM27.7616 22.94C27.7616 23.5467 27.6682 24.1183 27.4816 24.655C27.2949 25.1917 27.0149 25.6583 26.6416 26.055C26.2682 26.4517 25.8016 26.7667 25.2416 27C24.7049 27.2333 24.0749 27.35 23.3516 27.35C22.6516 27.35 22.0216 27.2333 21.4616 27C20.9249 26.7667 20.4699 26.4517 20.0966 26.055C19.7232 25.6583 19.4316 25.1917 19.2216 24.655C19.0349 24.1183 18.9416 23.5467 18.9416 22.94C18.9416 22.3333 19.0349 21.7617 19.2216 21.225C19.4316 20.6883 19.7232 20.2217 20.0966 19.825C20.4699 19.4283 20.9249 19.1133 21.4616 18.88C22.0216 18.6467 22.6516 18.53 23.3516 18.53C24.0749 18.53 24.7049 18.6467 25.2416 18.88C25.8016 19.1133 26.2682 19.4283 26.6416 19.825C27.0149 20.2217 27.2949 20.6883 27.4816 21.225C27.6682 21.7617 27.7616 22.3333 27.7616 22.94Z" fill="#5B3A01"/>
</g>
<defs>
<clipPath id="clip0_104_19">
<rect width="35" height="28" fill="white"/>
</clipPath>
</defs>
</svg>
