<svg width="35" height="28" viewBox="0 0 35 28" fill="none" xmlns="http://www.w3.org/2000/svg">
<g clip-path="url(#clip0_104_33)">
<path d="M8.61 2.185C9.98667 2.115 11.2583 2.16167 12.425 2.325C13.4283 2.465 14.4083 2.72166 15.365 3.095C16.345 3.46833 17.0567 4.04 17.5 4.81C17.9667 5.67333 18.165 6.50167 18.095 7.295C18.0483 8.08833 17.8967 8.78833 17.64 9.395C17.3367 10.1183 16.9167 10.795 16.38 11.425C17.2667 11.845 17.9783 12.3817 18.515 13.035C19.075 13.6883 19.495 14.33 19.775 14.96C20.1017 15.7067 20.3233 16.465 20.44 17.235C20.6033 18.8917 20.4867 20.28 20.09 21.4C19.6933 22.52 19.2033 23.4183 18.62 24.095C17.9433 24.8883 17.15 25.53 16.24 26.02C14.49 26.7667 12.8217 27.1517 11.235 27.175C9.64833 27.1983 8.24833 27.07 7.035 26.79C5.61167 26.4633 4.305 25.9617 3.115 25.285C2.57833 24.935 2.15833 24.585 1.855 24.235C1.55167 23.8617 1.33 23.5 1.19 23.15C1.05 22.8 0.968333 22.4617 0.945 22.135C0.945 21.8083 0.98 21.505 1.05 21.225C1.21333 20.5717 1.575 19.9417 2.135 19.335C2.625 18.845 3.16167 18.5767 3.745 18.53C4.32833 18.46 4.865 18.4833 5.355 18.6C5.93833 18.74 6.52167 18.985 7.105 19.335C7.64167 19.6617 8.12 19.86 8.54 19.93C8.98333 19.9767 9.35667 19.9767 9.66 19.93C10.01 19.86 10.3133 19.7317 10.57 19.545C10.8267 19.3117 10.99 19.0667 11.06 18.81C11.1533 18.5533 11.1883 18.32 11.165 18.11C11.1417 17.8533 11.06 17.62 10.92 17.41C10.7567 17.1533 10.5467 16.9667 10.29 16.85C10.0333 16.71 9.77667 16.6167 9.52 16.57C9.21667 16.5 8.90167 16.4767 8.575 16.5C7.455 16.5 6.62667 16.325 6.09 15.975C5.55333 15.625 5.16833 15.24 4.935 14.82C4.67833 14.33 4.55 13.7583 4.55 13.105C4.55 12.4983 4.73667 11.985 5.11 11.565C5.48333 11.1217 5.90333 10.7717 6.37 10.515C6.83667 10.235 7.28 10.0367 7.7 9.92C8.12 9.78 8.37667 9.69833 8.47 9.675C7.53667 9.79167 6.72 9.82667 6.02 9.78C5.32 9.73333 4.725 9.65167 4.235 9.535C3.745 9.395 3.33667 9.23167 3.01 9.045C2.68333 8.835 2.415 8.61333 2.205 8.38C1.73833 7.84333 1.51667 7.20167 1.54 6.455C1.54 5.94167 1.645 5.48667 1.855 5.09C2.065 4.67 2.33333 4.32 2.66 4.04C3.01 3.73667 3.395 3.48 3.815 3.27C4.235 3.06 4.66667 2.885 5.11 2.745C6.13667 2.44167 7.30333 2.255 8.61 2.185ZM32.1707 22.94C32.1707 23.5467 32.0774 24.1183 31.8907 24.655C31.7041 25.1917 31.4241 25.6583 31.0507 26.055C30.6774 26.4517 30.2107 26.7667 29.6507 27C29.1141 27.2333 28.4841 27.35 27.7607 27.35C27.0607 27.35 26.4307 27.2333 25.8707 27C25.3341 26.7667 24.8791 26.4517 24.5057 26.055C24.1324 25.6583 23.8407 25.1917 23.6307 24.655C23.4441 24.1183 23.3507 23.5467 23.3507 22.94C23.3507 22.3333 23.4441 21.7617 23.6307 21.225C23.8407 20.6883 24.1324 20.2217 24.5057 19.825C24.8791 19.4283 25.3341 19.1133 25.8707 18.88C26.4307 18.6467 27.0607 18.53 27.7607 18.53C28.4841 18.53 29.1141 18.6467 29.6507 18.88C30.2107 19.1133 30.6774 19.4283 31.0507 19.825C31.4241 20.2217 31.7041 20.6883 31.8907 21.225C32.0774 21.7617 32.1707 22.3333 32.1707 22.94Z" fill="#5B3A01"/>
</g>
<defs>
<clipPath id="clip0_104_33">
<rect width="35" height="28" fill="white"/>
</clipPath>
</defs>
</svg>
