<svg width="35" height="28" viewBox="0 0 35 28" fill="none" xmlns="http://www.w3.org/2000/svg">
<g clip-path="url(#clip0_104_31)">
<path d="M7.91 2.29C9.54333 2.17333 10.8967 2.27833 11.97 2.605C13.0433 2.93167 13.895 3.32833 14.525 3.795C15.2717 4.33167 15.8317 4.96167 16.205 5.685C16.625 6.455 16.905 7.225 17.045 7.995C17.185 8.74167 17.2317 9.47667 17.185 10.2C17.1383 10.9233 17.01 11.6233 16.8 12.3C16.6133 12.9767 16.3917 13.6067 16.135 14.19C15.505 15.5667 14.6533 16.8733 13.58 18.11C14.63 18.1333 15.575 18.3083 16.415 18.635C16.765 18.775 17.1033 18.9617 17.43 19.195C17.78 19.4283 18.0833 19.72 18.34 20.07C18.5967 20.3967 18.8067 20.7933 18.97 21.26C19.1333 21.7267 19.2033 22.275 19.18 22.905C19.1567 23.5117 18.9933 24.0367 18.69 24.48C18.41 24.9233 18.025 25.2967 17.535 25.6C17.0683 25.9033 16.5317 26.16 15.925 26.37C15.3417 26.5567 14.7467 26.7083 14.14 26.825C12.6933 27.0817 11.06 27.1867 9.24 27.14C7.37333 27.14 5.92667 26.93 4.9 26.51C3.87333 26.0667 3.10333 25.5883 2.59 25.075C1.98333 24.4683 1.62167 23.78 1.505 23.01C1.38833 22.03 1.44667 21.19 1.68 20.49C1.93667 19.7667 2.29833 19.125 2.765 18.565C3.23167 18.005 3.78 17.48 4.41 16.99C5.06333 16.4767 5.72833 15.94 6.405 15.38C6.73167 15.1 7.035 14.7967 7.315 14.47C7.595 14.1433 7.81667 13.805 7.98 13.455C8.16667 13.0817 8.26 12.72 8.26 12.37C8.26 11.9967 8.14333 11.6467 7.91 11.32C7.60667 10.9233 7.25667 10.6667 6.86 10.55C6.46333 10.41 6.09 10.3633 5.74 10.41C5.32 10.4567 4.88833 10.5617 4.445 10.725C3.65167 10.8883 3.03333 10.83 2.59 10.55C2.14667 10.2467 1.80833 9.885 1.575 9.465C1.31833 8.99833 1.13167 8.42667 1.015 7.75C0.991667 7.16667 1.07333 6.64167 1.26 6.175C1.44667 5.685 1.69167 5.265 1.995 4.915C2.32167 4.54167 2.68333 4.215 3.08 3.935C3.5 3.655 3.93167 3.42167 4.375 3.235C5.40167 2.79167 6.58 2.47667 7.91 2.29ZM30.9061 22.94C30.9061 23.5467 30.8128 24.1183 30.6261 24.655C30.4394 25.1917 30.1594 25.6583 29.7861 26.055C29.4128 26.4517 28.9461 26.7667 28.3861 27C27.8494 27.2333 27.2194 27.35 26.4961 27.35C25.7961 27.35 25.1661 27.2333 24.6061 27C24.0694 26.7667 23.6144 26.4517 23.2411 26.055C22.8678 25.6583 22.5761 25.1917 22.3661 24.655C22.1794 24.1183 22.0861 23.5467 22.0861 22.94C22.0861 22.3333 22.1794 21.7617 22.3661 21.225C22.5761 20.6883 22.8678 20.2217 23.2411 19.825C23.6144 19.4283 24.0694 19.1133 24.6061 18.88C25.1661 18.6467 25.7961 18.53 26.4961 18.53C27.2194 18.53 27.8494 18.6467 28.3861 18.88C28.9461 19.1133 29.4128 19.4283 29.7861 19.825C30.1594 20.2217 30.4394 20.6883 30.6261 21.225C30.8128 21.7617 30.9061 22.3333 30.9061 22.94Z" fill="#5B3A01"/>
</g>
<defs>
<clipPath id="clip0_104_31">
<rect width="35" height="28" fill="white"/>
</clipPath>
</defs>
</svg>
