<svg width="31" height="28" viewBox="0 0 31 28" fill="none" xmlns="http://www.w3.org/2000/svg">
<g clip-path="url(#clip0_97_11)">
<path d="M13.4019 6.5C14.5566 4.5 17.4434 4.5 18.5981 6.5L26.3923 20C27.547 22 26.1036 24.5 23.7942 24.5H8.20577C5.89637 24.5 4.45299 22 5.6077 20L13.4019 6.5Z" fill="#FAF7B7"/>
<path d="M14.1104 15.2892C14.0562 15.0242 14.0213 14.7338 14.0058 14.4178C13.9981 14.0917 13.9981 13.7809 14.0058 13.4854C14.0136 13.149 14.029 12.8025 14.0523 12.4459C14.0988 11.9873 14.1956 11.5796 14.3427 11.2229C14.4047 11.0701 14.4821 10.9223 14.5751 10.7796C14.6758 10.6268 14.7919 10.4943 14.9236 10.3822C15.0553 10.2701 15.2102 10.1783 15.3883 10.107C15.5665 10.0357 15.7678 10 15.9924 10C16.2635 10.0306 16.523 10.1274 16.7708 10.2904C16.98 10.4331 17.1852 10.6471 17.3866 10.9325C17.588 11.2076 17.739 11.6051 17.8397 12.1248C17.9249 12.6242 17.9752 13.0981 17.9907 13.5465C18.0062 13.9847 18.0023 14.3771 17.9791 14.7236C17.9481 15.1312 17.9016 15.5083 17.8397 15.8548C17.7467 16.2115 17.6189 16.5274 17.4563 16.8025C17.3169 17.0369 17.1271 17.251 16.887 17.4446C16.6547 17.6382 16.3565 17.735 15.9924 17.735C15.582 17.735 15.2528 17.6076 15.0049 17.3529C14.7571 17.0981 14.5673 16.8178 14.4357 16.5121C14.2808 16.1554 14.1723 15.7478 14.1104 15.2892ZM17.4911 20.349C17.4911 20.5834 17.4524 20.8025 17.375 21.0064C17.2975 21.2 17.1891 21.3732 17.0497 21.5261C16.9103 21.6688 16.7476 21.7809 16.5617 21.8624C16.3836 21.9541 16.19 22 15.9808 22C15.7717 22 15.5742 21.9541 15.3883 21.8624C15.2102 21.7809 15.0514 21.6688 14.912 21.5261C14.7803 21.3732 14.6758 21.2 14.5983 21.0064C14.5209 20.8025 14.4821 20.5834 14.4821 20.349C14.4821 20.1248 14.5209 19.9108 14.5983 19.707C14.6758 19.5032 14.7803 19.3299 14.912 19.1873C15.0514 19.0344 15.2102 18.9172 15.3883 18.8357C15.5742 18.7439 15.7717 18.6981 15.9808 18.6981C16.19 18.6981 16.3836 18.7439 16.5617 18.8357C16.7476 18.9172 16.9103 19.0344 17.0497 19.1873C17.1891 19.3299 17.2975 19.5032 17.375 19.707C17.4524 19.9108 17.4911 20.1248 17.4911 20.349Z" fill="black"/>
</g>
<defs>
<clipPath id="clip0_97_11">
<rect width="31" height="28" fill="white"/>
</clipPath>
</defs>
</svg>
